<svg xmlns="http://www.w3.org/2000/svg">
	<!-- All images created with SVG-edit - https://github.com/SVG-Edit/svgedit -->
	<g id="logo">
		<svg viewBox="0 0 478 472" xmlns:xlink="http://www.w3.org/1999/xlink" xmlns="http://www.w3.org/2000/svg">
			<defs>
				<linearGradient id="svg_5" x1="0" y1="0" x2="1" y2="1">
					<stop offset="0" stop-color="#ffffe0" stop-opacity="1" />
					<stop offset="1" stop-color="#edc39c" stop-opacity="1" />
				</linearGradient>
				<linearGradient id="svg_10" x1="0.57031" y1="0.78125" x2="0.28906" y2="0.41406">
					<stop offset="0" stop-color="#ff7f00" stop-opacity="1" />
					<stop offset="1" stop-color="#ffff00" />
				</linearGradient>
				<linearGradient id="svg_18" x1="0.37891" y1="0.35938" x2="1" y2="1">
					<stop offset="0" stop-color="#e0e0e0" stop-opacity="1" />
					<stop offset="1" stop-color="#666666" stop-opacity="1" />
				</linearGradient>
			</defs>
			<g>
				<path d="m68.82031,270.04688l-22,-33l17,-35l34,2l25,15l7,-35l28,-16l25,12l100,102l21,23l-15,35l-36,9l20,49l-31,24l-49,-17l-1,31l-33,21l-31,-19l-13,-35l-30,21l-30,-9l-5,-35l16,-31l-32,-6l-15,-19l3,-36l47,-18z" id="svg_19" fill="#ffffff" />
				<path fill="#1a171a" fill-rule="nonzero" id="path2902" d="m158.96452,155.03685c-25.02071,0 -45.37077,20.35121 -45.37077,45.3775c0,0.72217 0.01794,1.4399 0.0471,2.15645c-0.49339,-0.53604 -0.99355,-1.06085 -1.50603,-1.58452c-8.56077,-8.55519 -19.95982,-13.28413 -32.07432,-13.28413c-12.12122,0 -23.52027,4.72334 -32.08778,13.29646c-17.69347,17.69464 -17.69347,46.4619 0,64.17445c0.51809,0.51697 1.0485,1.0126 1.59015,1.50601c-0.72891,-0.03586 -1.45782,-0.04822 -2.19234,-0.04822c-25.02071,0 -45.37189,20.35117 -45.37189,45.37747c0,25.01398 20.35119,45.36517 45.37189,45.36517c0.72891,0 1.45221,-0.01236 2.1744,-0.04828c-0.5293,0.48221 -1.05412,0.98801 -1.56547,1.49368c-17.70021,17.68906 -17.70021,46.48654 -0.00628,64.18677c8.57872,8.56747 19.96655,13.2785 32.08778,13.2785c12.1145,0 23.5012,-4.71103 32.07433,-13.2785c0.51247,-0.51694 1.01823,-1.04849 1.50603,-1.57895c-0.02915,0.71213 -0.04709,1.44669 -0.04709,2.15759c0,25.01511 20.35007,45.37747 45.37077,45.37747c25.01398,0 45.37079,-20.3624 45.37079,-45.37747c0,-0.7222 -0.01689,-1.44553 -0.05266,-2.18112c0.48105,0.52933 0.97562,1.04849 1.48697,1.56662c8.57982,8.57977 19.97775,13.2908 32.1057,13.2908c12.11003,0 23.51358,-4.71103 32.0687,-13.2785c17.68906,-17.70013 17.68906,-46.48538 0,-64.17441c-0.50577,-0.4946 -1.01141,-1.00034 -1.54306,-1.48248c0.69983,0.03592 1.42316,0.04828 2.16992,0.04828c25.01514,0 45.35284,-20.35123 45.35284,-45.36517c0,-25.02631 -20.33774,-45.37747 -45.35284,-45.37747c-0.74683,0 -1.47009,0.01236 -2.19345,0.04822c0.53152,-0.49341 1.06082,-0.98904 1.59128,-1.50601c8.55521,-8.55521 13.2785,-19.94186 13.2785,-32.07545c0,-12.12793 -4.72336,-23.52028 -13.30319,-32.0934c-8.55515,-8.56076 -19.95866,-13.2841 -32.0687,-13.2841c-12.12122,0 -23.52025,4.72334 -32.08777,13.2841c-0.51137,0.5181 -1.01822,1.04851 -1.5049,1.57895c0.03586,-0.72331 0.05266,-1.43991 0.05266,-2.16881c0,-25.02629 -20.35681,-45.3775 -45.37079,-45.3775m0,20.71901c13.61607,0 24.65851,11.03122 24.65851,24.65849c0,6.62749 -2.651,12.62137 -6.9101,17.04979l0,51.67419l36.53975,-36.53523c0.12001,-6.14418 2.48277,-12.24686 7.18146,-16.94667c4.81305,-4.81305 11.12094,-7.22409 17.44116,-7.22409c6.30228,0 12.61577,2.41104 17.43552,7.22409c9.62166,9.63287 9.62166,25.24948 0,34.87669c-4.69977,4.68634 -10.80803,7.04915 -16.95334,7.18147l-36.5341,36.53305l51.66742,0c4.42841,-4.25351 10.42905,-6.90451 17.08008,-6.90451c13.59137,0 24.62933,11.03799 24.62933,24.66525c0,13.61606 -11.03796,24.66519 -24.62933,24.66519c-6.65106,0 -12.65167,-2.66333 -17.08008,-6.91681l-51.64836,0l36.50273,36.50946c6.16995,0.14465 12.26587,2.50522 16.96568,7.20618c9.6216,9.61487 9.6216,25.23151 0,34.85757c-4.80856,4.81979 -11.13327,7.22974 -17.43556,7.22974c-6.32019,0 -12.63371,-2.40991 -17.44786,-7.22974c-4.68074,-4.68744 -7.04802,-10.79572 -7.17473,-16.94098l-36.53975,-36.53415l0,51.66742c4.25908,4.44635 6.9101,10.43466 6.9101,17.0621c0,13.62729 -11.04243,24.66415 -24.65851,24.66415c-13.62166,0 -24.65848,-11.0369 -24.65848,-24.66415c0,-6.62744 2.64539,-12.61575 6.90335,-17.0621l0,-51.66742l-36.53864,36.54648c-0.12672,6.14413 -2.48838,12.26477 -7.18147,16.94098c-4.81416,4.81873 -11.12206,7.22974 -17.42882,7.22974c-6.31461,0 -12.6225,-2.41101 -17.43555,-7.22974c-9.63284,-9.62833 -9.63284,-25.24277 0,-34.8699c4.68073,-4.67627 10.79012,-7.05026 16.94101,-7.18262l36.533,-36.53302l-51.66632,0c-4.44075,4.25348 -10.42902,6.91681 -17.06211,6.91681c-13.61606,0 -24.65288,-11.04913 -24.65288,-24.66519c0,-13.62726 11.03682,-24.66525 24.65288,-24.66525c6.63309,0 12.62136,2.651 17.06211,6.90451l51.68537,0l-36.55208,-36.54538c-6.14527,-0.12 -12.25354,-2.49403 -16.94775,-7.19377c-9.62611,-9.61493 -9.62611,-25.23715 0,-34.86441c4.81419,-4.81305 11.12769,-7.22406 17.44228,-7.22406c6.30676,0 12.61465,2.41101 17.42883,7.22406c4.69978,4.69307 7.06034,10.80246 7.18144,16.94777l36.5386,36.53299l0,-51.66074c-4.25795,-4.42841 -6.90334,-10.42229 -6.90334,-17.04979c0,-13.62726 11.03682,-24.65848 24.65848,-24.65848" />
				<path d="m188.82031,210.04688l16,-47l155,-148l107,100l-158,156.99999l-44,12l-76,-74z" id="svg_6" fill="url(#svg_10)" stroke="none" />
				<path d="m335.57031,40.29688c-11.5,39.75 55.5,115.25 109.25,98.75l21,-20.99999l-103,-101l-27.25,23.25z" id="svg_11" fill="url(#svg_18)" stroke="none" />
				<rect x="272.80404" y="20.76382" width="42.35197" height="232.66835" id="svg_13" fill="#ffffff" stroke="none" transform="rotate(45.9094, 293.98, 137.1)" opacity="0.4" />
				<rect x="282.80404" y="22.76382" width="14" height="232.66835" fill="#ffffff" stroke="none" transform="rotate(45.9094, 289.805, 139.1)" opacity="0.4" id="svg_14" />
				<ellipse cx="415.13312" cy="64.38066" id="svg_12" fill="#ea7598" stroke="none" rx="67.79251" ry="34.82026" transform="rotate(39.4735, 415.133, 64.379)" />
				<path d="m212.07031,166.04688c-8.5,47 36.25,103.75 99.25,96.75l-152.5,53.25l53.25,-150z" id="svg_4" fill="url(#svg_5)" stroke="none" />
				<path d="m181.32031,242.54688c0.5,20.5 26.75,45 46.75,48.5l-66.25,20l19.5,-68.5z" id="svg_3" fill="#27382f" stroke="none" />
			</g>
			<g>
				<path d="m152.82031,317.04688l51,-152l157,-153c40,-12.00001 118,48 105,105l-157,152.99999l-156,47z" id="svg_1" fill="none" stroke="#800000" stroke-width="17" />
			</g>
		</svg>
	</g>
	<g id="select">
		<svg t="1602523640760" class="icon" viewBox="0 0 1024 1024" version="1.1" xmlns="http://www.w3.org/2000/svg" p-id="40774" width="32" height="32">
			<path d="M245.1 184.5l362.8 362.8 100.3 100.3H436.9l-14.6 14.6-177.2 177.3v-655m-50-120.7v896.3l262.5-262.5h371.3L643.3 512 195.1 63.8z" p-id="40775" fill="#d5d5d5">
			</path>
		</svg>
	</g>
	<g id="select_node">
		<svg viewBox="0 0 24 24" xmlns="http://www.w3.org/2000/svg" xmlns:xlink="http://www.w3.org/1999/xlink">
			<circle stroke="#0000ff" fill="#00ffff" id="svg_44" r="3.87891" cy="5.3" cx="8.7" stroke-width="1.5" />
			<path d="m9.18161,5.6695l0.07763,15.16198l3.41588,-2.33775l2.71718,5.00947l4.34748,-2.33775l-3.41587,-4.27474l4.73565,-0.33397l-11.87794,-10.88723z" id="svg_13" fill="#d5d5d5" stroke="#ffffff" />
		</svg>
	</g>
	<g id="square">
		<svg t="1602435057778" class="icon" viewBox="0 0 1024 1024" version="1.1" xmlns="http://www.w3.org/2000/svg" p-id="3772" width="32" height="32">
			<path d="M0 0h1024v1024H0z" fill-opacity="0" p-id="3773" fill="#d5d5d5">
			</path>
			<path d="M64 64h896v896H64V64z m64 64v768h768V128H128z" p-id="3774" fill="#d5d5d5">
			</path>
		</svg>
	</g>
	<g id="rect">
		<svg t="1602434962061" class="icon" viewBox="0 0 1024 1024" version="1.1" xmlns="http://www.w3.org/2000/svg" p-id="3542" width="32" height="32">
			<path d="M0 896V128h1024v768H0zM960 192H64v640h896V192z" p-id="3543" fill="#d5d5d5">
			</path>
		</svg>
	</g>
	<g id="fh_rect">
		<svg t="1602435106464" class="icon" viewBox="0 0 1024 1024" version="1.1" xmlns="http://www.w3.org/2000/svg" p-id="4003" width="32" height="32">
			<path d="M179.2 814.933333c-17.066667 0-29.866667-12.8-29.866667-29.866666 0-17.066667 12.8-29.866667 29.866667-29.866667s29.866667 12.8 29.866667 29.866667c0 12.8-12.8 29.866667-29.866667 29.866666z" fill="#d5d5d5" p-id="4004">
			</path>
			<path d="M776.533333 8.533333l179.2 179.2c12.8 12.8 12.8 29.866667 0 46.933334L430.933333 759.466667c-4.266667 4.266667-8.533333 8.533333-17.066666 8.533333-98.133333 21.333333-174.933333 34.133333-230.4 46.933333-8.533333 0-38.4-29.866667-34.133334-34.133333l46.933334-230.4c0-4.266667 4.266667-12.8 8.533333-17.066667L733.866667 8.533333c12.8-12.8 29.866667-12.8 42.666666 0zM396.8 712.533333L891.733333 217.6l-136.533333-136.533333L260.266667 576l-34.133334 170.666667c0-4.266667 170.666667-34.133333 170.666667-34.133334z m268.8-546.133333l136.533333 136.533333-46.933333 46.933334L618.666667 213.333333l46.933333-46.933333z" fill="#d5d5d5" p-id="4005">
			</path>
			<path d="M985.6 1024H38.4v-409.6h162.133333v51.2H89.6v307.2h844.8v-307.2H512v-51.2h473.6z" fill="#d5d5d5" p-id="4006">
			</path>
		</svg>
	</g>
	<g id="circle">
		<svg t="1602435211616" class="icon" viewBox="0 0 1024 1024" version="1.1" xmlns="http://www.w3.org/2000/svg" p-id="4629" width="32" height="32">
			<path d="M512 992c265.088 0 480-214.912 480-480 0-265.088-214.912-480-480-480C246.912 32 32 246.912 32 512c0 265.088 214.912 480 480 480z m0-96C299.936 896 128 724.064 128 512S299.936 128 512 128s384 171.936 384 384-171.936 384-384 384z" p-id="4630" fill="#d5d5d5">
			</path>
		</svg>
	</g>
	<g id="ellipse">
		<svg t="1602435831363" class="icon" viewBox="0 0 1024 1024" version="1.1" xmlns="http://www.w3.org/2000/svg" p-id="10506" width="32" height="32">
			<path d="M512 193.5c246 0 446.2 142.9 446.2 318.5S758 830.5 512 830.5 65.8 687.6 65.8 512 266 193.5 512 193.5m0-64.5C230 129 1.3 300.5 1.3 512S230 895 512 895s510.7-171.5 510.7-383S794 129 512 129z" p-id="10507" fill="#d5d5d5">
			</path>
		</svg>
	</g>
	<g id="fh_ellipse">
		<svg t="1602435183579" class="icon" viewBox="0 0 1024 1024" version="1.1" xmlns="http://www.w3.org/2000/svg" p-id="4431" width="32" height="32">
			<path d="M784.710212 14.119997l183.227173 183.227174c12.783291 12.783291 12.783291 34.088776 0 46.872067L435.300253 776.856371c-4.261097 4.261097-8.522194 8.522194-17.044388 8.522194-102.266329 21.305485-178.966076 38.349874-234.360338 46.872067-8.522194 0-42.610971-34.088776-38.349874-38.349873l46.872068-234.360338c0-4.261097 4.261097-12.783291 8.522194-17.044389L737.838144 5.597803c12.783291-8.522194 34.088776-8.522194 46.872068 8.522194zM392.689282 729.984303L895.498735 222.913753 759.143629 86.558647 256.334177 589.3681l-38.349874 170.443882 174.704979-29.827679zM669.660591 171.780588l136.355106 136.355106-46.872068 46.872068-136.355105-136.355106L669.660591 171.780588z" fill="#d5d5d5" p-id="4432">
			</path>
			<path d="M512 1024c-123.571815 0-242.882532-21.305485-332.365571-55.394262-98.005232-38.349874-149.138397-93.744135-149.138397-153.399494s51.133165-115.049621 149.138397-153.399494l17.044389 46.872068c-72.43865 29.827679-119.310718 68.177553-119.310718 106.527426 0 76.699747 178.966076 157.660591 434.6319 157.660591s434.6319-85.221941 434.6319-157.660591c0-76.699747-178.966076-157.660591-434.6319-157.660591v-51.133165c123.571815 0 242.882532 21.305485 332.365571 55.394262 98.005232 38.349874 149.138397 93.744135 149.138397 153.399494s-55.394262 115.049621-149.138397 153.399494c-89.483038 34.088776-208.793756 55.394262-332.365571 55.394262z" fill="#d5d5d5" p-id="4433">
			</path>
			<path d="M175.373332 832.250632c-17.044388 0-29.827679-12.783291-29.827679-29.827679 0-17.044388 12.783291-29.827679 29.827679-29.827679s29.827679 12.783291 29.82768 29.827679c0 12.783291-12.783291 29.827679-29.82768 29.827679z" fill="#d5d5d5" p-id="4434">
			</path>
		</svg>
	</g>
	<g id="pencil">
		<svg t="1602434580909" class="icon" viewBox="0 0 1024 1024" version="1.1" xmlns="http://www.w3.org/2000/svg" p-id="2983" width="32" height="32">
			<path d="M999.04982 198.574348L825.43283 24.967598a85.318594 85.318594 0 0 0-120.615424 0L33.747549 696.047695c-0.317436 0.317436-0.419835 0.74751-0.716791 1.085426a28.24156 28.24156 0 0 0-5.242813 7.89494c-0.081919 0.184318-0.225277 0.348156-0.307197 0.542713a28.31324 28.31324 0 0 0-1.945575 8.007578L0.119817 992.993675a28.446358 28.446358 0 0 0 28.323479 31.006325c0.860149 0 1.710058 0 2.570207-0.112639l279.425563-25.405116a28.364439 28.364439 0 0 0 8.017818-1.945575c0.194558-0.081919 0.368635-0.235517 0.563193-0.317436a28.221081 28.221081 0 0 0 7.87446-5.232574c0.327676-0.296956 0.75775-0.399355 1.085426-0.716791l533.39481-533.394809 0.081919-0.0512s0-0.061439 0.051199-0.081919l137.541929-137.541929a85.390273 85.390273 0 0 0 0-120.625664z m-411.745158 24.30945l213.828958 213.828958-493.264761 493.264761L94.039901 716.148559zM59.838737 964.178682l16.824105-185.013965 168.189859 168.189859z m899.009355-685.180398L841.345588 396.500788 627.50639 182.68207 745.019134 65.169326a28.405398 28.405398 0 0 1 40.211968 0l173.61699 173.59651a28.497557 28.497557 0 0 1 0 40.232448z" p-id="2984" fill="#d5d5d5">
			</path>
			<path d="M333.273976 719.16932a28.333719 28.333719 0 0 0 20.100864-8.325014l254.040926-254.030686a28.426902 28.426902 0 1 0-40.201728-40.201728L313.173112 670.642578a28.425878 28.425878 0 0 0 20.100864 48.526742z" p-id="2985" fill="#d5d5d5">
			</path>
		</svg>
	</g>
	<g id="pen">
		<svg t="1602434797677" class="icon" viewBox="0 0 1025 1024" version="1.1" xmlns="http://www.w3.org/2000/svg" p-id="3312" width="32" height="32">
			<path d="M930.263 61.981l31.756 31.756L93.747 962.009l-31.756-31.756L930.263 61.981z" p-id="3313" fill="#d5d5d5">
			</path>
		</svg>
	</g>
	<g id="text">
		<svg t="1602435503701" class="icon" viewBox="0 0 1024 1024" version="1.1" xmlns="http://www.w3.org/2000/svg" p-id="5021" width="32" height="32">
			<path d="M726.477 238.23v-88.468c0-4.593-3.418-8.04-7.968-8.04H83.061c-4.549 0-7.968 3.447-7.968 8.04v88.468c0 4.593 3.42 8.039 7.968 8.039H349.87v656.015c0 2.305 1.71 4.025 3.982 4.025h95.005c2.277 0 3.981-1.72 3.981-4.025V245.696h266.814c3.408 0 6.826-3.447 6.826-7.466z m61.44 263.673h-55.749L580.835 899.417h55.186l43.238-120.635h164.408l46.077 120.635h59.163l-160.99-397.514z m-93.295 234.373l43.231-116.61c9.104-25.28 15.931-50.556 21.054-75.836 6.248 21.26 15.357 48.83 27.87 82.728l40.96 110.286H694.621v-0.568z m0 0" p-id="5022" fill="#d5d5d5">
			</path>
		</svg>
	</g>
	<g id="path">
		<svg t="1602435448895" class="icon" viewBox="0 0 1024 1024" version="1.1" xmlns="http://www.w3.org/2000/svg" p-id="4825" width="32" height="32">
			<path d="M278.966857 278.966857L95.817143 950.857143H950.857143V95.817143L278.966857 278.893714zM219.428571 219.428571l804.571429-219.428571v1024H0L219.428571 219.428571z" fill="#d5d5d5" p-id="4826">
			</path>
		</svg>
	</g>
	<g id="add_subpath">
		<svg xmlns="http://www.w3.org/2000/svg" viewBox="0 0 124 124" xmlns:xlink="http://www.w3.org/1999/xlink">
			<defs>
				<linearGradient id="svg_4" x1="0.33594" y1="0.28125" x2="1" y2="1">
					<stop offset="0" stop-color="#ffffff" stop-opacity="1" />
					<stop offset="1" stop-color="#33a533" stop-opacity="1" />
				</linearGradient>
			</defs>
			<g>
				<path d="m6,103l55,-87c85,33.64 -26,37.12 55,87l-110,0z" id="svg_1" fill="url(#svg_4)" stroke="#d5d5d5" stroke-width="4" stroke-dasharray="null" />
				<g id="svg_7">
					<circle stroke-dasharray="null" stroke-width="5" stroke="#d5d5d5" fill="#ffffff" id="svg_6" r="22.63281" cy="88.5" cx="45.5" />
					<line stroke-dasharray="null" stroke-width="7" stroke="#d5d5d5" id="svg_2" y2="104.03768" x2="45.5" y1="72.96232" x1="45.5" />
					<line stroke-dasharray="null" stroke-width="7" stroke="#d5d5d5" id="svg_3" y2="88.5" x2="61.03768" y1="88.5" x1="29.96232" />
				</g>
			</g>
		</svg>
	</g>
	<g id="close_path">
		<svg viewBox="0 0 300 300" xmlns="http://www.w3.org/2000/svg" xmlns:xlink="http://www.w3.org/1999/xlink">
			<g>
				<path stroke="#000" stroke-width="15" fill="#ffc8c8" d="m121.5,40l-84,106l27,115l166,2l29,-111" />
				<line x1="240" y1="136" x2="169.5" y2="74" stroke="#A00" stroke-width="25" fill="none" />
				<path stroke="none" fill="#A00" d="m158,65l31,74l-3,-50l51,-3z" />
				<g stroke-width="15" stroke="#00f" fill="#0ff">
					<circle r="30" cy="41" cx="123" />
					<circle r="30" cy="146" cx="40" />
					<circle r="30" cy="260" cx="69" />
					<circle r="30" cy="260" cx="228" />
					<circle r="30" cy="148" cx="260" />
				</g>
			</g>
		</svg>
	</g>
	<g id="open_path">
		<svg viewBox="0 0 300 300" xmlns="http://www.w3.org/2000/svg" xmlns:xlink="http://www.w3.org/1999/xlink">
			<g>
				<path stroke="#000" stroke-width="15" fill="#ffc8c8" d="m123.5,38l-84,106l27,115l166,2l29,-111" />
				<line x1="276.5" y1="153" x2="108.5" y2="24" stroke="#000" stroke-width="10" fill="none" />
				<g stroke-width="15" stroke="#00f" fill="#0ff">
					<circle r="30" cy="41" cx="123" />
					<circle r="30" cy="146" cx="40" />
					<circle r="30" cy="260" cx="69" />
					<circle r="30" cy="260" cx="228" />
					<circle r="30" cy="148" cx="260" />
				</g>
				<g stroke="#A00" stroke-width="15" fill="none">
					<line x1="168" y1="24" x2="210" y2="150" />
					<line x1="210" y1="24" x2="168" y2="150" />
				</g>
			</g>
		</svg>
	</g>
	<g id="image">
		<svg t="1602435752485" class="icon" viewBox="0 0 1024 1024" version="1.1" xmlns="http://www.w3.org/2000/svg" p-id="7319" width="32" height="32">
			<path d="M928 160H96a32 32 0 0 0-32 32v640a32 32 0 0 0 32 32h832a32 32 0 0 0 32-32V192a32 32 0 0 0-32-32z m-40 632H136v-39.904l138.496-164.288 150.112 178.016 233.504-276.8 229.888 272.608v30.4z m0-129.792L664.192 396.8a7.904 7.904 0 0 0-12.192 0l-227.392 269.6-144-170.688a7.904 7.904 0 0 0-12.192 0L136 652.704V232h752v430.208zM304 456a88 88 0 1 0 0-176 88 88 0 1 0 0 176z m0-116a28 28 0 0 1 0 56 28 28 0 0 1 0-56z" p-id="7320" fill="#d5d5d5">
			</path>
		</svg>
	</g>
	<g id="zoom">
		<svg t="1602435932899" class="icon" viewBox="0 0 1024 1024" version="1.1" xmlns="http://www.w3.org/2000/svg" p-id="5451" width="32" height="32">
			<path d="M408.261 744.697c-48.334 0-95.239-9.474-139.411-28.156-42.65-18.04-80.947-43.858-113.828-76.739s-58.699-71.178-76.739-113.828C59.6 481.802 50.126 434.897 50.126 386.563s9.473-95.239 28.156-139.411c18.04-42.65 43.858-80.947 76.739-113.828S226.2 74.625 268.85 56.585c44.172-18.683 91.077-28.156 139.411-28.156v60c-164.392 0-298.134 133.742-298.134 298.134s133.742 298.135 298.134 298.135c164.392 0 298.134-133.743 298.134-298.135 0-50.489-12.842-100.36-37.138-144.223l52.486-29.072c29.211 52.737 44.651 112.662 44.651 173.295 0 48.334-9.474 95.239-28.156 139.411-18.039 42.65-43.857 80.947-76.738 113.828s-71.178 58.699-113.828 76.739c-44.172 18.683-91.077 28.156-139.411 28.156z" p-id="5452" fill="#d5d5d5">
			</path>
			<path d="M611.031 168.002c-40.362-37.466-90.068-62.964-143.745-73.737l11.807-58.827c64.538 12.954 124.277 43.587 172.758 88.59l-40.82 43.974zM571.22 366.517c-6.145-46.535-30.011-87.866-67.201-116.379-37.19-28.513-83.299-40.83-129.835-34.686l-7.855-59.483c62.425-8.245 124.289 8.289 174.198 46.553s81.935 93.716 90.179 156.14l-59.486 7.855zM653.38 629.294l70.49 70.491-42.425 42.426-70.491-70.49z" p-id="5453" fill="#d5d5d5">
			</path>
			<path d="M883.718 1011.56a76.32 76.32 0 0 1-9.612-0.612c-19.345-2.457-38-12.041-52.528-26.986L608.884 765.119l43.027-41.818 212.69 218.84c9.81 10.093 21.401 10.842 24.442 7.887l32.355-31.447c1.973-1.917 1.73-6.101 1.608-7.337-0.573-5.845-3.779-12.157-8.795-17.318l-212.692-218.84 43.027-41.818 212.691 218.84c14.527 14.948 23.577 33.868 25.482 53.276 2.121 21.623-4.987 42.115-19.505 56.224l-32.354 31.445c-12.338 11.994-29.14 18.507-47.142 18.507z" p-id="5454" fill="#d5d5d5">
			</path>
			<path d="M784.887 701.596l27.88 28.684-92.634 90.037-27.88-28.684zM721.046 665.844l27.88 28.684-92.635 90.038-27.88-28.684zM842.188 738.438l27.88 28.685-92.635 90.04-27.881-28.685z" p-id="5455" fill="#d5d5d5">
			</path>
		</svg>
	</g>
	<g id="arrow_right">
		<svg xmlns:xlink="http://www.w3.org/1999/xlink" xmlns="http://www.w3.org/2000/svg" viewBox="0 0 25 50">
			<path stroke="#d5d5d5" fill="#d5d5d5" d="m0,0l0,50l25,-25l-25,-25z" />
		</svg>
	</g>
	<g id="arrow_right_big">
		<svg xmlns:xlink="http://www.w3.org/1999/xlink" xmlns="http://www.w3.org/2000/svg" viewBox="0 0 40 50">
			<path stroke="#d5d5d5" fill="#d5d5d5" d="m0,0l0,50l25,-25l-25,-25z" />
		</svg>
	</g>
	<g id="arrow_down">
		<svg viewBox="0 0 50 40" xmlns="http://www.w3.org/2000/svg" xmlns:xlink="http://www.w3.org/1999/xlink">
			<path transform="rotate(90, 26, 13)" d="m14,-12l0,50l25,-25l-25,-25z" fill="#d5d5d5" stroke="#d5d5d5" />
		</svg>
	</g>
	<g id="fill">
		<svg width="32" height="33" xmlns="http://www.w3.org/2000/svg">
			<g id="svg_5">
				<path id="svg_4" d="m17.49167,10.97621c6.9875,-0.325 12.1875,2.70833 12.13333,7.36667l-0.325,10.075c-0.75833,4.0625 -2.275,3.0875 -3.03333,0.10833l0.21667,-9.64166c-0.43333,-0.975 -1.08333,-1.625 -1.95,-1.51667" stroke-linejoin="round" stroke="#606060" fill="#c0c0c0" />
				<path id="svg_1" d="m2.00055,17.1309l10.72445,-10.72445l12.67445,12.13279l-3.52056,0.05389l-9.15389,9.26223l-10.72445,-10.72445z" stroke-linejoin="round" stroke="#d5d5d5" fill="#c0c0c0" />
				<path id="svg_3" d="m14.35,13.57621c-0.1625,-3.95417 0.86667,-11.7 -1.84167,-11.59167c-2.70833,0.10833 -2.6,2.05833 -2.16667,6.93333" stroke-linejoin="round" stroke="#d5d5d5" fill="none" />
				<circle id="svg_2" r="1.60938" cy="15.20121" cx="14.45833" stroke-linejoin="round" stroke="#d5d5d5" fill="none" />
			</g>
		</svg>
	</g>
	<g id="stroke">
		<svg width="50" height="50" xmlns="http://www.w3.org/2000/svg">
			<rect fill="none" stroke="#707070" stroke-width="10" x="8.625" y="8.625" width="32.75" height="32.75" id="svg_1" />
		</svg>
	</g>
	<g id="opacity">
		<svg width="50" height="50" xmlns="http://www.w3.org/2000/svg">
			<defs>
				<linearGradient y2="0.1" x2="0.9" y1="0.9" x1="0.1" id="svg_7">
					<stop stop-color="#d5d5d5" offset="0" />
					<stop stop-opacity="0" stop-color="#d5d5d5" offset="1" />
				</linearGradient>
			</defs>
			<rect id="svg_4" height="50" width="50" y="0" x="0" fill="#ffffff" />
			<rect id="svg_1" height="25" width="25" y="0" x="0" fill="#a0a0a0" />
			<rect id="svg_2" height="25" width="25" y="25" x="25" fill="#a0a0a0" />
			<rect id="svg_3" height="50" width="50" y="0" x="0" stroke-width="2" stroke="url(#svg_7)" fill="url(#svg_7)" />
		</svg>
	</g>
	<g id="new_image">
		<svg width="24" height="24" xmlns="http://www.w3.org/2000/svg" xmlns:xlink="http://www.w3.org/1999/xlink">
			<rect x="2.42792" y="1.6692" width="18" height="21" id="svg_55" fill="#eaeaea" stroke="#606060" />
			<circle stroke="none" fill="url(#svg_9)" id="svg_65" r="6.300781" cy="7.529969" cx="17.761984" />
			<defs>
				<radialGradient id="svg_9" cx="0.5" cy="0.5" r="0.5">
					<stop offset="0.1" stop-color="#ffe500" stop-opacity="1" />
					<stop offset="1" stop-color="#ffff00" stop-opacity="0" />
				</radialGradient>
			</defs>
		</svg>
	</g>
	<g id="save">
		<svg xmlns:xlink="http://www.w3.org/1999/xlink" xmlns="http://www.w3.org/2000/svg" viewBox="0 0 24 24">
			<defs>
				<linearGradient y2="0" x2="1" y1="0" x1="0" id="svg_41">
					<stop stop-opacity="1" stop-color="#727272" offset="0" />
					<stop stop-opacity="1" stop-color="#d6d6d6" offset="1" />
				</linearGradient>
				<linearGradient y2="0.875" x2="0.21484" y1="0.00391" x1="0.04297" id="svg_46">
					<stop stop-opacity="1" stop-color="#81bbf4" offset="0" />
					<stop stop-opacity="1" stop-color="#376eb7" offset="1" />
				</linearGradient>
			</defs>
			<path stroke="#202020" fill="#e0e0e0" id="svg_21" d="m1.51669,22.3458l21.13245,-0.10111l0,-6.06673l-2.62892,-9.80789l-16.27907,0.10111l-2.32558,9.20121l0.10111,6.67341z" />
			<rect stroke="#efefef" fill="url(#svg_41)" id="svg_32" height="4.75108" width="19.21031" y="16.58227" x="2.42667" />
			<path stroke="#ffffff" fill="#c0c0c0" id="svg_42" d="m4.55005,11.12235l0.70779,-2.83114l13.04348,0l0.70779,3.13448c-0.70779,2.52781 -4.04479,3.84227 -7.17897,3.84227c-2.72977,0 -6.37007,-1.41557 -7.28008,-4.1456z" />
			<path stroke="#285582" fill="url(#svg_46)" id="svg_45" d="m7.14286,9.74903l5.21236,5.79151l5.50193,-5.88803l-2.50965,-0.09653l0,-2.79923c0,-2.3166 -2.3166,-5.59846 -6.56371,-5.59846c-4.05405,0 -6.27413,3.37838 -6.56371,6.75676c0.48263,-1.5444 2.7027,-4.53668 4.44015,-4.44015c2.12355,-0.09653 2.79923,1.64093 2.79923,3.37838l0.09653,2.79923l-2.41313,0.09653z" />
		</svg>
	</g>
	<g id="export">
		<svg width="24" height="24" xmlns="http://www.w3.org/2000/svg">
			<defs>
				<linearGradient id="svg_5" x1="0.77734" y1="0.51172" x2="0.09375" y2="0.53516">
					<stop offset="0" stop-color="#81bbf4" />
					<stop offset="1" stop-color="#376eb7" />
				</linearGradient>
			</defs>
			<g>
				<rect x="7.22599" y="1.3603" width="15.76465" height="21.51735" id="svg_55" fill="#eaeaea" stroke="#606060" />
				<circle fill="#31abed" stroke-width="0.5" cx="17.4206" cy="11.1278" r="4.69727" id="svg_3" />
				<path fill="#ffcc00" stroke-width="0.5" d="m9.67673,20.24302l7.38701,-6.80778l2.91746,6.71323" id="svg_4" />
				<rect fill="#ff5555" stroke-width="0.5" x="9.5385" y="2.94914" width="5.74652" height="5.74652" id="svg_2" />
				<path d="m6.13727,17.94236l5.77328,-4.91041l-5.86949,-5.1832l-0.09622,2.36426l-4.64805,-0.06751l-0.04665,5.54694l4.79093,-0.02342l0.09623,2.27334z" id="svg_45" fill="url(#svg_5)" stroke="#285582" />
			</g>
		</svg>
	</g>
	<g id="open">
		<svg viewBox="0 0 22 22" xmlns="http://www.w3.org/2000/svg" xmlns:xlink="http://www.w3.org/1999/xlink">
			<defs>
				<linearGradient y2="0.91406" x2="0.65234" y1="0.14063" x1="0.42578" id="svg_76">
					<stop stop-opacity="1" stop-color="#81bbf4" offset="0" />
					<stop stop-opacity="1" stop-color="#376eb7" offset="1" />
				</linearGradient>
			</defs>
			<rect x="1.65" y="3.75" width="9.8" height="16.72712" id="svg_98" fill="#c0c0c0" stroke="#606060" />
			<rect stroke="none" fill="#a0a0a0" id="svg_88" height="14.17459" width="6.39585" y="4.9758" x="2.89542" />
			<path d="m18.62576,4.54365l0,6.91443l-9.9395,0l-0.08643,-10.11236l6.828,0l3.19792,3.19793z" id="svg_99" fill="#e0e0e0" stroke="#404040" />
			<path d="m2.95,20.53644l1.65,-12.03644l16.2,0l-1.5,12l-16.35,0.03643z" id="svg_97" fill="url(#svg_76)" stroke="#285582" />
			<line fill="none" stroke="#606060" id="svg_89" y2="4.28436" x2="13.95851" y1="4.28436" x1="10.32844" />
			<line fill="none" stroke="#606060" id="svg_91" y2="6.53155" x2="14.82282" y1="6.53155" x1="10.32844" />
			<path stroke="none" fill="#ffffff" id="svg_100" d="m15.25895,1.95069l-0.00401,2.85225l2.89558,0.00004l-2.89157,-2.85229z" />
		</svg>
	</g>
	<g id="import">
		<svg viewBox="0 0 24 24" xmlns="http://www.w3.org/2000/svg" xmlns:xlink="http://www.w3.org/1999/xlink">
			<defs>
				<linearGradient y2="0.875" x2="0.21484" y1="0.00391" x1="0.04297" id="svg_46_import">
					<stop stop-opacity="1" stop-color="#81f4bb" offset="0" />
					<stop stop-opacity="1" stop-color="#37b76e" offset="1" />
				</linearGradient>
			</defs>
			<rect x="2.42792" y="1.6692" width="18" height="21" id="svg_55" fill="#eaeaea" stroke="#606060" />
			<path stroke="#285582" fill="url(#svg_46_import)" id="svg_45" d="m7.14286,12.74903l5.21236,5.79151l5.50193,-5.88803l-2.50965,-0.09653l0,-2.79923c0,-2.3166 -2.3166,-5.59846 -6.56371,-5.59846c-4.05405,0 -6.27413,3.37838 -6.56371,6.75676c0.48263,-1.5444 2.7027,-4.53668 4.44015,-4.44015c2.12355,-0.09653 2.79923,1.64093 2.79923,3.37838l0.09653,2.79923l-2.41313,0.09653z" />
		</svg>
	</g>
	<g id="docprops">
		<svg xmlns:xlink="http://www.w3.org/1999/xlink" xmlns="http://www.w3.org/2000/svg" viewBox="0 0 24 24">
			<defs>
				<linearGradient y2="1" x2="1" y1="0.5" x1="1" id="svg_53">
					<stop stop-opacity="1" stop-color="#606060" offset="0" />
					<stop stop-opacity="0" stop-color="#5e5e5e" offset="1" />
				</linearGradient>
			</defs>
			<rect stroke="#606060" fill="#eaeaea" id="svg_55" height="21" width="18" y="1.6692" x="2.42792" />
			<line fill="none" stroke="#a0a0a0" id="svg_56" y2="4.37757" x2="14.89023" y1="4.37757" x1="6.696" />
			<line fill="none" stroke="#a0a0a0" id="svg_57" y2="7.10804" x2="12.92026" y1="7.10804" x1="6.6948" />
			<line fill="none" stroke="#a0a0a0" id="svg_58" y2="9.84241" x2="15.64716" y1="9.84241" x1="6.6942" />
			<line fill="none" stroke="#a0a0a0" id="svg_59" y2="12.36585" x2="13.21805" y1="12.36585" x1="6.69691" />
			<line fill="none" stroke="#a0a0a0" id="svg_60" y2="15.06507" x2="14.43591" y1="15.06507" x1="6.69691" />
			<line fill="none" stroke="#a0a0a0" id="svg_61" y2="17.84241" x2="13.36979" y1="17.84241" x1="6.69691" />
			<g id="svg_54">
				<path transform="rotate(-45, 12.5448, 11.7085)" stroke="none" fill="#606060" id="svg_31" d="m11.24329,8.73944l0,2.79974l2.53499,0.07777l0,-2.95528c1.78134,0.07777 2.26093,1.39987 2.12391,2.95528c-0.06851,1.63318 -1.30175,3.49967 -3.49418,3.26636c-2.19242,-0.31108 -2.87755,-1.39987 -3.15161,-2.72197c-0.27406,-1.39987 0.41108,-3.34413 1.98689,-3.4219z" />
				<rect opacity="0.95" transform="rotate(-45, 16.2485, 15.1732)" stroke="none" fill="url(#svg_53)" id="svg_50" height="4.85445" width="2.57974" y="12.746" x="15.04047" />
			</g>
		</svg>
	</g>
	<g id="source">
		<svg t="1602438474978" class="icon" viewBox="0 0 1364 1024" version="1.1" xmlns="http://www.w3.org/2000/svg" p-id="71878" width="16" height="16">
			<path d="M426.557261 839.017214l-37.289654 37.289654c-4.547519 4.547519-10.459293 7.27603-17.280571 7.27603-6.366526 0-12.733053-2.728511-17.280572-7.27603L7.27603 528.876433c-4.547519-4.547519-7.27603-10.459293-7.27603-17.280571 0-6.366526 2.728511-12.733053 7.27603-17.280571L354.706464 147.339608c4.547519-4.547519 10.459293-7.27603 17.280572-7.27603 6.366526 0 12.733053 2.728511 17.280571 7.27603l37.289654 37.289654c4.547519 4.547519 7.27603 10.459293 7.27603 17.280572 0 6.366526-2.728511 12.733053-7.27603 17.280571l-292.860209 292.860209L426.557261 804.910823c4.547519 4.547519 7.27603 10.459293 7.27603 17.280571 0 6.366526-2.728511 12.733053-7.27603 16.82582zM866.757078 43.65618l-278.308149 962.709725c-1.819008 6.366526-5.911774 11.368797-11.368797 14.55206-5.457023 3.183263-11.823549 4.092767-17.735323 1.819007l-46.384691-12.733052c-6.366526-1.819008-11.368797-5.911774-14.55206-11.368797-3.183263-5.457023-4.092767-12.278301-1.819008-18.190075L775.351951 17.735323c1.819008-6.366526 5.911774-11.368797 11.368797-14.55206 5.457023-3.183263 11.823549-4.092767 17.735323-1.819007l46.384692 12.733052c6.366526 1.819008 11.368797 5.911774 14.55206 11.368797 3.183263 5.457023 3.638015 11.823549 1.364255 18.190075z m490.222524 485.220253L1009.549168 876.306868c-4.547519 4.547519-10.459293 7.27603-17.280572 7.27603-6.366526 0-12.733053-2.728511-17.280571-7.27603l-37.289654-37.289654c-4.547519-4.547519-7.27603-10.459293-7.27603-17.280572 0-6.366526 2.728511-12.733053 7.27603-17.280571l292.860209-292.860209-292.860209-292.860209c-4.547519-4.547519-7.27603-10.459293-7.27603-17.280571 0-6.366526 2.728511-12.733053 7.27603-17.280572l37.289654-37.289654c4.547519-4.547519 10.459293-7.27603 17.280571-7.27603 6.366526 0 12.733053 2.728511 17.280572 7.27603l347.430434 347.430435c4.547519 4.547519 7.27603 10.459293 7.27603 17.280571s-2.728511 13.187804-7.27603 17.280571z m0 0" fill="#d5d5d5" p-id="71879">
			</path>
		</svg>
	</g>
	<g id="wireframe">
		<svg xmlns:xlink="http://www.w3.org/1999/xlink" xmlns="http://www.w3.org/2000/svg" viewBox="0 0 24 24">
			<circle stroke="#d5d5d5" stroke-width="1.5" fill="none" id="svg_49" r="8" cy="9.5" cx="9.5" />
			<rect stroke="#d5d5d5" stroke-width="1.5" fill="none" id="svg_52" height="14" width="14" y="8.5" x="8.5" />
		</svg>
	</g>
	<g id="undo">
		<svg t="1602434158343" class="icon" viewBox="0 0 1024 1024" version="1.1" xmlns="http://www.w3.org/2000/svg" p-id="2272" width="200" height="200">
			<path d="M480.0005 326.00149996V215.99899999c-9.99900002-45.999-48.00150002-18-48.0015-17.99999999L168.00200009 423.998C110.0015 463.99849998 164.00150004 494 164.00150004 494l259.99649996 223.9965c52.002 38.00249995 55.99800002-19.99349991 55.99800002-19.99349997v-102.00600003c264.00149999-81.999 372.0015 246.00600001 372.00149998 246.00599999 9.99900002 18 16.00199997 0 16.00199996 0C969.9965 350.00000002 480.0005 326.00149996 480.0005 326.00149996z" fill="#d5d5d5" p-id="2273">
			</path>
		</svg>
	</g>
	<g id="redo">
		<svg t="1602434204691" class="icon" viewBox="0 0 1024 1024" version="1.1" xmlns="http://www.w3.org/2000/svg" p-id="2430" width="200" height="200">
			<path d="M128 800h20.6l38.4-62.4c41-65.4 89.8-125.6 151.6-153.2 48.8-21.8 93.4-37.8 173.4-40V704l384-256-384-256v160.6C386 358.2 295.8 394 225.4 465 120.8 570.4 128 703 128 736.4c0.2 17.8 0 43.4 0 63.6z" p-id="2431" fill="#d5d5d5">
			</path>
		</svg>
	</g>
	<g id="clone">
		<svg t="1602435987926" class="icon" viewBox="0 0 1024 1024" version="1.1" xmlns="http://www.w3.org/2000/svg" p-id="5684" width="32" height="32">
			<path d="M731.428571 731.428571H0V0h731.428571v731.428571zM73.142857 658.285714h585.142857V73.142857H73.142857v585.142857z" p-id="5685" fill="#d5d5d5">
			</path>
			<path d="M1024 1024H292.571429V292.571429h731.428571v731.428571z m-658.285714-73.142857h585.142857V365.714286H365.714286v585.142857z" p-id="5686" fill="#d5d5d5">
			</path>
		</svg>
	</g>
	<g id="delete">
		<svg t="1602436030408" class="icon" viewBox="0 0 1024 1024" version="1.1" xmlns="http://www.w3.org/2000/svg" p-id="5915" width="32" height="32">
			<path d="M512 620.544l253.3376 253.3376a76.6976 76.6976 0 1 0 108.544-108.544L620.6464 512l253.2352-253.3376a76.6976 76.6976 0 1 0-108.544-108.544L512 403.3536 258.6624 150.1184a76.6976 76.6976 0 1 0-108.544 108.544L403.3536 512 150.1184 765.3376a76.6976 76.6976 0 1 0 108.544 108.544L512 620.6464z" p-id="5916" fill="#d5d5d5">
			</path>
		</svg>
	</g>
	<g id="go_up">
		<svg xmlns:xlink="http://www.w3.org/1999/xlink" xmlns="http://www.w3.org/2000/svg" viewBox="0 0 18 18">
			<defs>
				<linearGradient y2="0" x2="0.7" y1="0" x1="0" id="svg_74">
					<stop stop-opacity="1" stop-color="#afe853" offset="0" />
					<stop stop-opacity="1" stop-color="#52a310" offset="1" />
				</linearGradient>
			</defs>
			<path stroke="#008000" fill="url(#svg_74)" id="svg_33" d="m5.38492,16.77043l7.07692,0l0,-5.23077l4.15385,0l-7.69231,-10.15385l-7.69231,10.15385l4.15385,0l0,5.23077z" />
		</svg>
	</g>
	<g id="go_down">
		<svg xmlns:xlink="http://www.w3.org/1999/xlink" xmlns="http://www.w3.org/2000/svg" viewBox="0 0 18 18">
			<defs>
				<linearGradient y2="0" x2="0.7" y1="0" x1="0" id="svg_75">
					<stop stop-opacity="1" stop-color="#afe853" offset="0" />
					<stop stop-opacity="1" stop-color="#52a310" offset="1" />
				</linearGradient>
			</defs>
			<path stroke="#008000" fill="url(#svg_75)" id="svg_33" d="m5.3015,1.69202l6.93483,0l0,5.07323l4.07045,0l-7.53786,9.84803l-7.53786,-9.84803l4.07045,0l0,-5.07323z" />
		</svg>
	</g>
	<g id="context_menu">
		<svg width="120" height="120" xmlns="http://www.w3.org/2000/svg">
			<path stroke-width="0" id="svg_11" d="m4.5,46.5l52,0l-26,38l-26,-38z" stroke="#000" fill="#000" />
			<g id="svg_16">
				<line stroke-width="10" id="svg_12" y2="27.5" x2="117.5" y1="27.5" x1="59.5" stroke="#000" fill="#000" />
				<line id="svg_13" stroke-width="10" y2="51.5" x2="117.5" y1="51.5" x1="59.5" stroke="#000" fill="#000" />
				<line id="svg_14" stroke-width="10" y2="73.5" x2="117.5" y1="73.5" x1="59.5" stroke="#000" fill="#000" />
				<line id="svg_15" stroke-width="10" y2="97.5" x2="117.5" y1="97.5" x1="59.5" stroke="#000" fill="#000" />
			</g>
		</svg>
	</g>
	<g id="move_bottom">
		<svg t="1602436832264" class="icon" viewBox="0 0 1024 1024" version="1.1" xmlns="http://www.w3.org/2000/svg" p-id="18124" width="32" height="32">
			<path d="M96.853333 860.586667h834.133334v115.2H96.853333zM868.693333 399.786667h-174.506666V42.666667H333.653333v357.12h-174.933333l354.986667 378.453333 354.986666-378.453333z" p-id="18125" fill="#d5d5d5">
			</path>
		</svg>
	</g>
	<g id="move_top">
		<svg t="1602436862939" class="icon" viewBox="0 0 1024 1024" version="1.1" xmlns="http://www.w3.org/2000/svg" p-id="18787" width="32" height="32">
			<path d="M155.306667 619.093333h174.506666v356.693334h360.533334v-356.693334h174.933333L512 240.213333zM93.013333 48.213333v115.2h834.133334v-115.2z" p-id="18788" fill="#d5d5d5">
			</path>
		</svg>
	</g>
	<g id="to_path">
		<svg t="1602437302318" class="icon" viewBox="0 0 1024 1024" version="1.1" xmlns="http://www.w3.org/2000/svg" p-id="26751" width="32" height="32">
			<path d="M797.74933 733.392446a144.909786 144.909786 0 0 0-103.855953 43.417777L342.847647 581.863616a136.084394 136.084394 0 0 0 10.16496-107.007879L698.85766 260.051998a149.716473 149.716473 0 1 0-40.108255-60.674571l-342.693127 212.754988a145.461373 145.461373 0 1 0-22.93026 225.126296l364.756607 202.590027a143.649016 143.649016 0 0 0-5.909861 38.689889 145.382575 145.382575 0 1 0 145.382575-145.303777zM796.015771 79.840643a72.651888 72.651888 0 1 1-72.651889 72.651888 72.730687 72.730687 0 0 1 72.967081-72.730686zM142.306371 515.673175a72.651888 72.651888 0 1 1 72.651889 72.651889 72.730687 72.730687 0 0 1-72.651889-72.651889z m655.83695 435.674937a72.651888 72.651888 0 1 1 72.651888-72.651889 72.730687 72.730687 0 0 1-73.045879 72.651889z" p-id="26752" fill="#d5d5d5">
			</path>
		</svg>
	</g>
	<g id="link_controls">
		<svg viewBox="0 0 24 24" xmlns:xlink="http://www.w3.org/1999/xlink" xmlns="http://www.w3.org/2000/svg">
			<path stroke-width="2" id="svg_102" d="m9.875,23c-2,-4.25 -1.6875,-7.375 1.6875,-10.5c3.375,-3.125 7.5625,-2.75 11.0625,2" stroke="#8dd35f" fill="none" />
			<line fill="none" stroke="#606060" id="svg_109" y2="4" x2="19" y1="19" x1="4" />
			<circle stroke="#0000ff" fill="#00ffff" id="svg_111" r="2.17578" cy="11.5" cx="11.5" />
			<circle stroke-width="0.5" id="svg_121" stroke="#0000ff" fill="#00ffff" r="2.26172" cy="4" cx="19" />
			<circle id="svg_123" stroke-width="0.5" stroke="#0000ff" fill="#00ffff" r="2.26172" cy="19" cx="4" />
		</svg>
	</g>
	<g id="reorient">
		<svg t="1602437696699" class="icon" viewBox="0 0 1024 1024" version="1.1" xmlns="http://www.w3.org/2000/svg" p-id="34657" width="32" height="32">
			<path d="M847.21916702 1007.16367615c66.9416323 0 122.51340777-51.35598576 122.51340443-116.38134824s-55.5717755-116.38134826-122.51340443-116.38135162H175.88657747c-25.16698909 0-44.32966747-17.75741744-44.32967079-38.0698591 0-20.18468946 19.03492953-38.0698591 44.32967079-38.06985912h138.99330973c21.58995381 0 39.09187018-17.50191639 39.09187018-39.09186672-0.51100549-22.10095931-18.01291845-39.7306245-39.09187018-39.21962243H175.88657747c-66.9416323 0-122.51340777 51.35598576-122.51340773 116.38134827s55.5717755 116.38134826 122.51340773 116.38135162h671.20483738c25.16698909 0 44.4574197 17.75741744 44.45741969 38.0698591 0 20.18468946-19.16268176 38.0698591-44.45741969 38.0698591H287.15787734c-21.07894823-0.51100549-38.58086462 16.99091081-39.09187024 39.09187021 0 21.58995381 17.50191639 39.21961897 39.09187024 39.21961893h560.06128968zM548.40909366 16.32531833c-141.80383841-0.38325328-256.65217348 114.46508176-257.03542674 256.26892017 0 105.1392437 142.18709168 302.00385198 215.38853234 396.02873977 20.44019388 23.122967 55.69952431 25.16698909 78.82249469 4.8545474l4.85454745-4.8545474c73.07368844-94.02488786 215.2607835-290.37849067 215.26078351-396.02873977-0.51100549-141.80383841-115.48708939-256.39667241-257.29093125-256.26892017z m0 401.01103605c-38.19761133 0-74.73445727-15.07464095-101.81771277-42.15789656-27.08325558-27.08325558-42.15789653-63.62010147-42.15789654-101.8177128 0-38.19761133 15.07464095-74.73445727 42.15789654-101.68996055 27.08325558-26.9555033 63.62010147-42.03014769 101.81771277-41.90239546 78.4392414 1.40526435 141.29283279 65.40861911 141.29283291 143.8478605 0 78.31148914-62.98134372 142.31484386-141.29283291 143.72010487z m0 0" p-id="34658" fill="#d5d5d5">
			</path>
		</svg>
	</g>
	<g id="group_elements">
		<svg viewBox="0 0 16 16" xmlns="http://www.w3.org/2000/svg" xmlns:xlink="http://www.w3.org/1999/xlink">
			<defs>
				<linearGradient id="svg_90" x1="0" y1="0" x2="1" y2="1">
					<stop offset="0" stop-color="#ccddff" stop-opacity="1" />
					<stop offset="1" stop-color="#789fed" stop-opacity="1" />
				</linearGradient>
				<linearGradient id="svg_92" x1="0" y1="0" x2="1" y2="1">
					<stop offset="0" stop-color="#70a1e5" stop-opacity="1" />
					<stop offset="1" stop-color="#4b6baf" stop-opacity="1" />
				</linearGradient>
			</defs>
			<rect x="13.5" y="0.5" width="2" height="2" fill="#a0a0a0" stroke="#555555" id="svg_79" />
			<rect x="13.5" y="13.5" width="2" height="2" fill="#a0a0a0" stroke="#555555" id="svg_82" />
			<rect x="0.5" y="13.5" width="2" height="2" fill="#a0a0a0" stroke="#555555" id="svg_83" />
			<rect x="2.5" y="2.5" width="8" height="7" fill="#a0a0a0" stroke="#555555" id="svg_85" />
			<rect x="2.5" y="2.5" width="8" height="7" fill="url(#svg_90)" stroke="url(#svg_92)" id="svg_87" />
			<rect x="5.5" y="6.5" width="8" height="7" id="svg_84" fill="#7399d6" stroke="url(#svg_92)" />
			<rect x="0.5" y="0.5" width="2" height="2" id="svg_78" fill="#a0a0a0" stroke="#555555" />
		</svg>
	</g>
	<g id="ungroup">
		<svg viewBox="0 0 16 16" xmlns="http://www.w3.org/2000/svg" xmlns:xlink="http://www.w3.org/1999/xlink">
			<defs>
				<linearGradient id="svg_90" x1="0" y1="0" x2="1" y2="1">
					<stop offset="0" stop-color="#ccddff" stop-opacity="1" />
					<stop offset="1" stop-color="#789fed" stop-opacity="1" />
				</linearGradient>
				<linearGradient id="svg_92" x1="0" y1="0" x2="1" y2="1">
					<stop offset="0" stop-color="#70a1e5" stop-opacity="1" />
					<stop offset="1" stop-color="#4b6baf" stop-opacity="1" />
				</linearGradient>
			</defs>
			<rect x="2.5" y="2.5" width="8" height="7" fill="url(#svg_90)" stroke="url(#svg_92)" id="svg_87" />
			<rect x="5.5" y="6.5" width="8" height="7" id="svg_84" fill="#7399d6" stroke="url(#svg_92)" />
			<rect x="9.5" y="1.5" width="2" height="2" fill="#a0a0a0" stroke="#555555" id="svg_79" />
			<rect x="1.5" y="8.5" width="2" height="2" fill="#a0a0a0" stroke="#555555" id="svg_83" />
			<rect x="1.5" y="1.5" width="2" height="2" id="svg_78" fill="#a0a0a0" stroke="#555555" />
			<rect id="svg_93" x="12.5" y="5.5" width="2" height="2" fill="#a0a0a0" stroke="#555555" />
			<rect id="svg_94" x="12.5" y="12.5" width="2" height="2" fill="#a0a0a0" stroke="#555555" />
			<rect id="svg_95" x="4.5" y="12.5" width="2" height="2" fill="#a0a0a0" stroke="#555555" />
			<rect id="svg_96" x="4.5" y="5.5" width="2" height="2" fill="#a0a0a0" stroke="#555555" />
		</svg>
	</g>
	<g id="unlink_use">
		<svg width="222" height="222" xmlns="http://www.w3.org/2000/svg">
			<path id="svg_1" d="m93.75,118.44922c-4.5,13.58447 -14.66553,11.5 -28.25,11.5l-34,0c-13.58447,0 -24.5,-7.16553 -24.5,-21.5c0,-14.33447 10.91553,-20.5 24.5,-20.5l34,0c13.58447,0 19.75,-2.33447 26.5,10.75" stroke-width="13" stroke="#3f3f3f" fill="none" />
			<g id="svg_11">
				<line id="svg_4" y2="65.94563" x2="83.07683" y1="28.27895" x1="45.41017" stroke-linecap="round" stroke-width="8" stroke="#007fff" fill="none" />
				<line id="svg_5" y2="15.01293" x2="109.41467" y1="65.94638" x1="109.41467" stroke-linecap="round" stroke-width="8" stroke="#007fff" fill="none" />
				<line id="svg_6" y2="29.31928" x2="177.58937" y1="65.94638" x1="140.96227" stroke-linecap="round" stroke-width="8" stroke="#007fff" fill="none" />
			</g>
			<g id="svg_12" transform="rotate(-180, 108, 172.111)">
				<line y2="190.94563" x2="79.57683" y1="153.27895" x1="41.91017" stroke-linecap="round" stroke-width="8" stroke="#007fff" fill="none" id="svg_13" />
				<line y2="140.01293" x2="105.91467" y1="190.94638" x1="105.91467" stroke-linecap="round" stroke-width="8" stroke="#007fff" fill="none" id="svg_14" />
				<line y2="154.31928" x2="174.08937" y1="190.94638" x1="137.46227" stroke-linecap="round" stroke-width="8" stroke="#007fff" fill="none" id="svg_15" />
			</g>
			<path transform="rotate(-180, 172.125, 108.926)" id="svg_2" d="m215.5,118.44901c-4.5,13.58499 -14.6655,11.5 -28.25,11.5l-34,0c-13.5845,0 -24.5,-7.16501 -24.5,-21.5c0,-14.3343 10.9155,-20.4998 24.5,-20.4998l34,0c13.5845,0 19.75,-2.3345 26.5,10.75" stroke-width="13" stroke="#3f3f3f" fill="none" />
		</svg>
	</g>
	<g id="width">
		<svg width="100" height="100" xmlns="http://www.w3.org/2000/svg">
			<path id="svg_6" d="m19,42.5l-7.5,7.5l7.5,7.5l0,-15zm0,7.5l62,0l0,-7.5l7.5,7.5l-7.5,7.5l0,-7.5" stroke-width="8" stroke="#d5d5d5" fill="#d5d5d5" />
		</svg>
	</g>
	<g id="height">
		<svg width="100" height="100" xmlns="http://www.w3.org/2000/svg">
			<path transform="rotate(90, 50, 50)" fill="#d5d5d5" stroke="#d5d5d5" stroke-width="8" d="m19,42.5l-7.5,7.5l7.5,7.5l0,-15zm0,7.5l62,0l0,-7.5l7.5,7.5l-7.5,7.5l0,-7.5" id="svg_6" />
		</svg>
	</g>
	<g id="c_radius">
		<svg width="20" height="20" xmlns="http://www.w3.org/2000/svg">
			<rect stroke="#404040" fill="none" stroke-width="0.5" x="2.37501" y="2.4375" width="43.9375" height="43.9375" id="svg_1" rx="13" ry="13" />
			<path fill="none" stroke="#d5d5d5" d="m2.43674,15.88952l13.73722,0l0.08978,-13.46483m0.08978,14.08493" id="svg_3" />
			<line fill="none" stroke="#d5d5d5" x1="16.35107" y1="15.88934" x2="5.20504" y2="5.20504" id="svg_4" stroke-dasharray="2,2" />
		</svg>
	</g>
	<g id="angle">
		<svg width="50" height="50" xmlns="http://www.w3.org/2000/svg">
			<path stroke-width="2" stroke-dasharray="1,3" id="svg_6" d="m32.78778,41.03469c-0.40379,-8.68145 -4.50873,-16.79003 -12.11365,-20.5932" stroke="#d5d5d5" fill="none" />
			<path id="svg_7" d="m29.20348,7.67055l-24.20348,34.47921l41.16472,0" stroke-width="3" stroke="#404040" fill="none" />
		</svg>
	</g>
	<g id="blur">
		<svg width="300" height="300" xmlns="http://www.w3.org/2000/svg">
			<!-- Created with SVG-edit - https://github.com/SVG-Edit/svgedit -->
			<defs>
				<filter id="svg_4_blur" x="-50%" y="-50%" width="200%" height="200%">
					<feGaussianBlur stdDeviation="25" />
				</filter>
			</defs>
			<circle fill="#d5d5d5" stroke="#d5d5d5" stroke-width="5" stroke-dasharray="null" cx="150" cy="150" r="91.80151" id="svg_4" filter="url(#svg_4_blur)" />
		</svg>
	</g>
	<g id="fontsize">
		<svg width="50" height="50" xmlns="http://www.w3.org/2000/svg">
			<text fill="#606060" stroke="none" x="14.451" y="41.4587" id="svg_2" font-size="26" font-family="serif" text-anchor="middle">
				T
			</text>
			<text fill="#d5d5d5" stroke="none" x="28.853" y="41.8685" font-size="52" font-family="serif" text-anchor="middle" xml:space="preserve" id="svg_3">
				T
			</text>
		</svg>
	</g>
	<g id="align">
		<svg width="22" height="22" xmlns="http://www.w3.org/2000/svg">
			<rect stroke="#606060" fill="#c0c0c0" id="svg_4" height="7" width="12" y="7.5" x="4.5" />
			<rect stroke="#c15909" fill="#ef9a23" id="svg_2" height="40" width="2" y="-10" x="9.5" />
			<rect stroke="#ffffff" fill="none" id="svg_5" height="5" width="10" y="8.5" x="5.5" />
		</svg>
	</g>
	<g id="align_left">
		<svg xmlns:xlink="http://www.w3.org/1999/xlink" xmlns="http://www.w3.org/2000/svg" viewBox="0 0 22 22">
			<rect stroke="#606060" fill="#ffffff" id="svg_4" height="7" width="12" y="2.5" x="2.5" />
			<rect stroke="none" fill="#c0c0c0" id="svg_5" height="4" width="11" y="4" x="2" />
			<rect id="svg_6" stroke="#606060" fill="#ffffff" height="7" width="18" y="12.5" x="2.5" />
			<rect id="svg_7" stroke="none" fill="#c0c0c0" height="4" width="17" y="14" x="2" />
			<rect stroke="#c15909" fill="#ef9a23" id="svg_2" height="40" width="2" y="-10" x="1.5" />
		</svg>
	</g>
	<g id="align_center">
		<svg viewBox="0 0 22 22" xmlns="http://www.w3.org/2000/svg" xmlns:xlink="http://www.w3.org/1999/xlink">
			<rect x="1.5" y="12.5" width="18" height="7" fill="#c0c0c0" stroke="#606060" id="svg_6" />
			<rect x="4.5" y="2.5" width="12" height="7" id="svg_4" fill="#c0c0c0" stroke="#606060" />
			<rect x="9.5" y="-10" width="2" height="40" id="svg_2" fill="#ef9a23" stroke="#c15909" />
			<rect x="2.5" y="13.5" width="16" height="5" fill="none" stroke="#ffffff" id="svg_7" />
			<rect x="5.5" y="3.5" width="10" height="5" id="svg_5" fill="none" stroke="#ffffff" />
		</svg>
	</g>
	<g id="align_right">
		<svg viewBox="0 0 22 22" xmlns="http://www.w3.org/2000/svg" xmlns:xlink="http://www.w3.org/1999/xlink">
			<rect x="7.5" y="2.5" width="12" height="7" id="svg_4" fill="#ffffff" stroke="#606060" />
			<rect x="9" y="4" width="11" height="4" id="svg_5" fill="#c0c0c0" stroke="none" />
			<rect x="1.5" y="12.5" width="18" height="7" fill="#ffffff" stroke="#606060" id="svg_6" />
			<rect x="3" y="14" width="17" height="4" fill="#c0c0c0" stroke="none" id="svg_7" />
			<rect x="18.5" y="-10" width="2" height="40" id="svg_2" fill="#ef9a23" stroke="#c15909" />
		</svg>
	</g>
	<g id="align_top">
		<svg viewBox="0 0 22 22" xmlns="http://www.w3.org/2000/svg" xmlns:xlink="http://www.w3.org/1999/xlink">
			<g transform="rotate(90, 11, 11)" id="svg_1">
				<rect x="2.5" y="3.5" width="12" height="7" id="svg_4" fill="#ffffff" stroke="#606060" />
				<rect x="2" y="5" width="11" height="4" id="svg_5" fill="#c0c0c0" stroke="none" />
				<rect x="2.5" y="13.5" width="18" height="7" fill="#ffffff" stroke="#606060" id="svg_6" />
				<rect x="2" y="15" width="17" height="4" fill="#c0c0c0" stroke="none" id="svg_7" />
				<rect x="1.5" y="-9" width="2" height="40" id="svg_2" fill="#ef9a23" stroke="#c15909" />
			</g>
		</svg>
	</g>
	<g id="align_middle">
		<svg xmlns:xlink="http://www.w3.org/1999/xlink" xmlns="http://www.w3.org/2000/svg" viewBox="0 0 22 22">
			<g transform="rotate(90, 12, 11.5)" id="svg_1">
				<rect id="svg_6" stroke="#606060" fill="#c0c0c0" height="7" width="18" y="14" x="3" />
				<rect stroke="#606060" fill="#c0c0c0" id="svg_4" height="7" width="12" y="4" x="6" />
				<rect stroke="#c15909" fill="#ef9a23" id="svg_2" height="40" width="2" y="-8.5" x="11" />
				<rect id="svg_7" stroke="#ffffff" fill="none" height="5" width="16" y="15" x="4" />
				<rect stroke="#ffffff" fill="none" id="svg_5" height="5" width="10" y="5" x="7" />
			</g>
		</svg>
	</g>
	<g id="align_bottom">
		<svg xmlns:xlink="http://www.w3.org/1999/xlink" xmlns="http://www.w3.org/2000/svg" viewBox="0 0 22 22">
			<g transform="rotate(90, 11, 11)" id="svg_1">
				<rect stroke="#606060" fill="#ffffff" id="svg_4" height="7" width="12" y="2.5" x="7.5" />
				<rect stroke="none" fill="#c0c0c0" id="svg_5" height="4" width="11" y="4" x="9" />
				<rect id="svg_6" stroke="#606060" fill="#ffffff" height="7" width="18" y="12.5" x="1.5" />
				<rect id="svg_7" stroke="none" fill="#c0c0c0" height="4" width="17" y="14" x="3" />
				<rect stroke="#c15909" fill="#ef9a23" id="svg_2" height="40" width="2" y="-10" x="18.5" />
			</g>
		</svg>
	</g>
	<g id="linecap_butt">
		<svg width="100" height="100" xmlns="http://www.w3.org/2000/svg" xmlns:se="http://svg-edit.googlecode.com" xmlns:xlink="http://www.w3.org/1999/xlink">
			<!-- Created with SVG-edit - https://github.com/SVG-Edit/svgedit -->
			<defs>
				<linearGradient id="svg_8" x1="0.8" y1="1" x2="0.2" y2="1">
					<stop offset="0" stop-color="#d5d5d5" stop-opacity="1" />
					<stop offset="1" stop-color="#d5d5d5" stop-opacity="0" />
				</linearGradient>
			</defs>
			<g>
				<rect fill="url(#svg_8)" stroke="#a0a0a0" stroke-width="2" x="-15.20196" y="43.5974" width="94.8373" height="50.3728" id="svg_3" transform="rotate(-45, 32.2148, 68.7832)" />
				<path id="svg_1" d="m6.63133,95.07755l59.17514,-59.17514" stroke-width="3" stroke="#00ffff" fill="none" />
				<path id="svg_2" d="m51.62893,36.10742l13.05662,-13.05662l13.05661,13.05662l-13.05661,13.05662l-13.05662,-13.05662z" stroke="none" fill="#00ffff" />
			</g>
		</svg>
	</g>
	<g id="linecap_square">
		<svg width="100" height="100" xmlns="http://www.w3.org/2000/svg" xmlns:se="http://svg-edit.googlecode.com" xmlns:xlink="http://www.w3.org/1999/xlink">
			<!-- Created with SVG-edit - https://github.com/SVG-Edit/svgedit -->
			<defs>
				<linearGradient id="svg_8" x1="0.8" y1="1" x2="0.2" y2="1">
					<stop offset="0" stop-color="#d5d5d5" stop-opacity="1" />
					<stop offset="1" stop-color="#d5d5d5" stop-opacity="0" />
				</linearGradient>
			</defs>
			<g>
				<rect fill="url(#svg_8)" stroke="none" x="-18.51568" y="35.5974" width="117.46469" height="50.3728" id="svg_3" transform="rotate(-45, 40.2168, 60.7832)" />
				<path id="svg_1" d="m6.63133,95.07755l59.17514,-59.17514" stroke-width="3" stroke="#00ffff" fill="none" />
				<path id="svg_2" d="m51.62893,36.10742l13.05662,-13.05662l13.05661,13.05662l-13.05661,13.05662l-13.05662,-13.05662z" stroke="none" fill="#00ffff" />
			</g>
		</svg>
	</g>
	<g id="linecap_round">
		<svg width="100" height="100" xmlns="http://www.w3.org/2000/svg" xmlns:xlink="http://www.w3.org/1999/xlink" xmlns:se="http://svg-edit.googlecode.com">
			<!-- Created with SVG-edit - https://github.com/SVG-Edit/svgedit -->
			<defs>
				<linearGradient y2="1" x2="0.2" y1="1" x1="0.8" id="svg_8">
					<stop stop-opacity="1" stop-color="#d5d5d5" offset="0" />
					<stop stop-opacity="0" stop-color="#d5d5d5" offset="1" />
				</linearGradient>
			</defs>
			<g>
				<path transform="rotate(-45, 41.5117, 59.4648)" id="svg_3" d="m-19.0679,34.2946l94.8359,0c36.499,-1.4142 33.67101,48.9569 0,50.3711l-94.8359,0l0,-50.3711z" stroke-width="2" stroke="#a0a0a0" fill="url(#svg_8)" />
				<path id="svg_1" d="m6.63133,95.07755l59.17515,-59.17515" stroke-width="3" stroke="#00ffff" fill="none" />
				<path id="svg_2" d="m51.62893,36.10742l13.05662,-13.05662l13.05661,13.05662l-13.05661,13.05662l-13.05662,-13.05662z" stroke="none" fill="#00ffff" />
			</g>
		</svg>
	</g>
	<g id="linejoin_miter">
		<svg width="100" height="100" xmlns="http://www.w3.org/2000/svg" xmlns:xlink="http://www.w3.org/1999/xlink" xmlns:se="http://svg-edit.googlecode.com">
			<!-- Created with SVG-edit - https://github.com/SVG-Edit/svgedit -->
			<defs>
				<linearGradient y2="1" x2="0.2" y1="1" x1="0.8" id="svg_8">
					<stop stop-opacity="1" stop-color="#d5d5d5" offset="0" />
					<stop stop-opacity="0" stop-color="#d5d5d5" offset="1" />
				</linearGradient>
			</defs>
			<g>
				<path fill="none" stroke="url(#svg_8)" stroke-width="49" d="m-15,-35l75,85l-75,75" id="svg_6" />
				<path transform="rotate(90, 57.8925, 50.2519)" fill="#00ffff" stroke="none" d="m44.83592,50.25187l13.05661,-13.05663l13.05661,13.05663l-13.05661,13.05662l-13.05661,-13.05662z" id="svg_2" />
				<path id="svg_4" d="m-15,-35l75,85l-75,75" stroke-width="3" stroke="#00ffff" fill="none" />
			</g>
		</svg>
	</g>
	<g id="linejoin_bevel">
		<svg width="100" height="100" xmlns="http://www.w3.org/2000/svg" xmlns:xlink="http://www.w3.org/1999/xlink" xmlns:se="http://svg-edit.googlecode.com">
			<!-- Created with SVG-edit - https://github.com/SVG-Edit/svgedit -->
			<defs>
				<linearGradient y2="1" x2="0.2" y1="1" x1="0.8" id="svg_8">
					<stop stop-opacity="1" stop-color="#d5d5d5" offset="0" />
					<stop stop-opacity="0" stop-color="#d5d5d5" offset="1" />
				</linearGradient>
			</defs>
			<g>
				<path stroke-linejoin="bevel" fill="none" stroke="url(#svg_8)" stroke-width="49" d="m-15,-35l75,85l-75,75" id="svg_6" />
				<path transform="rotate(90, 57.8925, 50.2519)" fill="#00ffff" stroke="none" d="m44.83592,50.25187l13.05661,-13.05663l13.05661,13.05663l-13.05661,13.05662l-13.05661,-13.05662z" id="svg_2" />
				<path id="svg_4" d="m-15,-35l75,85l-75,75" stroke-width="3" stroke="#00ffff" fill="none" />
			</g>
		</svg>
	</g>
	<g id="linejoin_round">
		<svg width="100" height="100" xmlns="http://www.w3.org/2000/svg" xmlns:xlink="http://www.w3.org/1999/xlink" xmlns:se="http://svg-edit.googlecode.com">
			<!-- Created with SVG-edit - https://github.com/SVG-Edit/svgedit -->
			<defs>
				<linearGradient y2="1" x2="0.2" y1="1" x1="0.8" id="svg_8">
					<stop stop-opacity="1" stop-color="#d5d5d5" offset="0" />
					<stop stop-opacity="0" stop-color="#d5d5d5" offset="1" />
				</linearGradient>
			</defs>
			<g>
				<path stroke-linejoin="round" fill="none" stroke="url(#svg_8)" stroke-width="49" d="m-15,-35l75,85l-75,75" id="svg_6" />
				<path transform="rotate(90, 57.8925, 50.2519)" fill="#00ffff" stroke="none" d="m44.83592,50.25187l13.05661,-13.05663l13.05661,13.05663l-13.05661,13.05662l-13.05661,-13.05662z" id="svg_2" />
				<path id="svg_4" d="m-15,-35l75,85l-75,75" stroke-width="3" stroke="#00ffff" fill="none" />
			</g>
		</svg>
	</g>
	<g id="eye">
		<svg xmlns:xlink="http://www.w3.org/1999/xlink" xmlns="http://www.w3.org/2000/svg" viewBox="0 0 17 17">
			<defs>
				<linearGradient y2="0.79688" x2="0.5625" y1="0.19141" x1="0.42969" id="svg_91">
					<stop stop-opacity="1" stop-color="#d3a16b" offset="0" />
					<stop stop-opacity="1" stop-color="#a37c53" offset="1" />
				</linearGradient>
			</defs>
			<path stroke="none" fill="url(#svg_91)" id="svg_9" d="m0.12852,8.18338c3.59931,-7.71208 13.19749,-7.36932 16.75236,0.08569c-3.02165,7.5407 -13.59741,7.66924 -16.75236,-0.08569z" />
			<path id="svg_76" stroke="none" fill="#ffffff" d="m0.33033,8.2557c3.5173,-4.97159 12.89675,-4.75063 16.37062,0.05524c-2.95279,4.86111 -13.28756,4.94397 -16.37062,-0.05524z" />
			<circle stroke="none" fill="#4f92c1" id="svg_88" r="3.08008" cy="7.71116" cx="8.45861" />
			<circle stroke="none" fill="#d5d5d5" id="svg_89" r="1.27539" cy="7.6539" cx="8.43159" />
		</svg>
	</g>
	<g id="no_color">
		<svg xmlns:xlink="http://www.w3.org/1999/xlink" xmlns="http://www.w3.org/2000/svg" viewBox="0 0 24 24">
			<line fill="none" stroke="#d40000" id="svg_90" y2="24" x2="24" y1="0" x1="0" />
			<line id="svg_92" fill="none" stroke="#d40000" y2="24" x2="0" y1="0" x1="24" />
		</svg>
	</g>
	<g id="ok">
		<svg xmlns:xlink="http://www.w3.org/1999/xlink" xmlns="http://www.w3.org/2000/svg" viewBox="0 0 24 24">
			<defs>
				<linearGradient y2="0.65625" x2="0.94141" y1="0.43359" x1="0.42969" id="svg_106">
					<stop stop-opacity="1" stop-color="#38ff45" offset="0" />
					<stop stop-opacity="1" stop-color="#127c0c" offset="1" />
				</linearGradient>
			</defs>
			<path transform="rotate(45, 12, 10)" stroke="#005500" fill="url(#svg_106)" id="svg_101" d="m7.9,15.9l4.9,-0.05l0,-13.75l3.8,0l0,17.6l-8.7,0l0,-3.8z" />
		</svg>
	</g>
	<g id="cancel">
		<svg xmlns:xlink="http://www.w3.org/1999/xlink" xmlns="http://www.w3.org/2000/svg" viewBox="0 0 24 24">
			<defs>
				<linearGradient y2="0.65625" x2="0.94141" y1="0.43359" x1="0.42969" id="svg_9">
					<stop stop-opacity="1" stop-color="#ff3838" offset="0" />
					<stop stop-opacity="1" stop-color="#7a0c0c" offset="1" />
				</linearGradient>
			</defs>
			<path stroke="#550000" fill="url(#svg_9)" id="svg_101" d="m2.10526,10.52632l7.36842,0l0,-7.36842l3.68421,0l0,7.36842l7.36842,0l0,3.68421l-7.36842,0l0,7.36842l-3.68421,0l0,-7.36842l-7.36842,0l0,-3.68421z" transform="rotate(45, 11.3, 12.3)" />
		</svg>
	</g>
	<g id="warning">
		<svg xmlns:xlink="http://www.w3.org/1999/xlink" xmlns="http://www.w3.org/2000/svg" viewBox="0 0 24 24">
			<defs>
				<linearGradient y2="0.98047" x2="0.57813" y1="0.44922" x1="0.56641" id="svg_110">
					<stop stop-opacity="1" stop-color="#ffff00" offset="0" />
					<stop stop-opacity="1" stop-color="#9e9e00" offset="1" />
				</linearGradient>
			</defs>
			<path d="m1.42857,21.55559l10.71429,-19.36489l10.71429,19.20352l-21.42857,0.16137z" id="svg_44" fill="url(#svg_110)" stroke="#916d1f" stroke-width="2" />
			<path stroke="none" fill="#d5d5d5" id="svg_103" d="m11.98371,14.68571c-0.57143,-3.82857 -1.82857,-6.4 0.11429,-6.4c2.11429,0 0.74286,2.57143 0.11429,6.4l-0.22857,0z" />
			<circle stroke="none" fill="#d5d5d5" id="svg_104" r="1.17578" cy="17.37143" cx="12.14308" />
		</svg>
	</g>
	<g id="node_delete">
		<svg width="24" height="24" xmlns="http://www.w3.org/2000/svg">
			<path stroke-width="2" id="svg_102" d="m4.1953,19.42128c15.49391,-15.53349 -0.21065,0.1581 15.61084,-15.57944" stroke="#8dd35f" fill="none" />
			<circle stroke-width="0.5" id="svg_121" stroke="#0000ff" fill="#00ffff" r="2.26172" cy="4" cx="19.75" />
			<circle id="svg_123" stroke-width="0.5" stroke="#0000ff" fill="#00ffff" r="2.26172" cy="19.40299" cx="4.0653" />
			<circle id="svg_7" stroke-width="0.5" stroke="#0000ff" fill="#00ffff" r="2.26172" cy="11.625" cx="11.9375" />
			<g transform="rotate(-45.291072845458984 9.81157112121582,9.244086265563965) " id="svg_6">
				<line stroke-linecap="round" id="svg_4" y2="9.45264" x2="15.14996" y1="9.3943" x1="4.47318" stroke-dasharray="null" stroke-width="2" stroke="#ff0000" fill="none" />
				<line stroke-linecap="round" id="svg_5" y2="14.46579" x2="9.66571" y1="4.02238" x1="9.7824" stroke-dasharray="null" stroke-width="2" stroke="#ff0000" fill="none" />
			</g>
		</svg>
	</g>
	<g id="node_clone">
		<svg width="24" height="24" xmlns="http://www.w3.org/2000/svg">
			<path stroke-width="2" id="svg_102" d="m4.1953,19.42128c15.49391,-15.53349 -0.21065,0.1581 15.61084,-15.57944" stroke="#8dd35f" fill="none" />
			<circle stroke-width="0.5" id="svg_121" stroke="#0000ff" fill="#00ffff" r="2.26172" cy="4" cx="19.75" />
			<circle id="svg_123" stroke-width="0.5" stroke="#0000ff" fill="#00ffff" r="2.26172" cy="19.40299" cx="4.0653" />
			<circle id="svg_7" stroke-width="0.5" stroke="#0000ff" fill="#00ffff" r="2.26172" cy="11.625" cx="11.9375" />
			<line stroke-linecap="round" id="svg_5" y2="14.46579" x2="9.66571" y1="4.02238" x1="9.7824" stroke-dasharray="null" stroke-width="2" stroke="#0000ff" fill="#0000ff" />
			<line stroke-linecap="round" id="svg_4" y2="9.45264" x2="15.14996" y1="9.3943" x1="4.47318" stroke-dasharray="null" stroke-width="2" stroke="#0000ff" fill="#0000ff" />
		</svg>
	</g>
	<g id="globe_link">
		<svg t="1602436188491" class="icon" viewBox="0 0 1024 1024" version="1.1" xmlns="http://www.w3.org/2000/svg" p-id="6308" width="32" height="32">
			<path d="M451.7 622.6c-11.8 0-23.1-5-31.1-13.6-80.4-85.1-80.4-223 0-308.2l162.2-171.5c37.6-40.6 90.5-63.7 145.8-63.8 55 0 106.8 22.6 145.7 63.7 80.5 85.2 80.5 223.1 0 308.2l-74.1 78.4c-15.8 17.2-42.6 18.3-59.8 2.4l-2.4-2.4c-17.2-18.5-17.2-47.2 0-65.7l74.2-78.4c46.1-49.9 46.1-126.9 0-176.9-21.6-23.3-51.8-36.5-83.6-36.6-31.6 0-61.3 13-83.6 36.6L482.7 366.5c-46.1 49.9-46.1 126.9 0 176.8 17.1 18.6 17 47.3-0.2 65.8-8 8.5-19.1 13.4-30.8 13.5z m-302 272.1c-80.5-85.2-80.5-223.1 0-308.2l74.1-78.4c15.9-17.2 42.6-18.2 59.8-2.4 0.8 0.8 1.6 1.5 2.4 2.4 17.2 18.5 17.2 47.2 0 65.7l-74.1 78.3c-46.1 49.9-46.1 126.9 0 176.8 22.3 23.6 52 36.7 83.6 36.7s61.4-13 83.7-36.7l162.2-171.5c46.1-49.9 46.1-126.9 0-176.9-16.1-19.5-14.5-48 3.6-65.6 16.3-15.7 42.2-15.7 58.5 0 80.4 85.1 80.4 223 0 308.2L441.2 894.6c-37.6 40.6-90.5 63.7-145.8 63.9-55.3-0.2-108.1-23.3-145.7-63.8z" p-id="6309" fill="#d5d5d5">
			</path>
		</svg>
	</g>
	<g id="config">
		<svg width="64" height="64" viewBox="0 0 1024 1024" version="1.1" xmlns="http://www.w3.org/2000/svg">
			<path d="M655.872 960a61.952 61.952 0 0 1-45.376-19.136c-14.912-16.192-62.272-58.24-100.992-58.24-38.464 0-86.528 42.304-100.352 57.216a62.144 62.144 0 0 1-68.224 14.144l-1.28-0.576-117.76-65.088-1.088-0.832a55.552 55.552 0 0 1-18.944-67.52c0.064-0.192 10.816-24.768 10.816-47.168 0-67.968-56-123.392-124.8-123.392h-4.16l-0.768 0.064c-19.712 0-35.776-17.344-40.896-44.096C41.6 603.264 32 552.448 32 512.384c0-40 9.6-90.88 10.048-92.992 5.184-27.136 21.568-44.48 41.664-44.096h4.16c68.8 0 124.8-55.296 124.8-123.328 0-22.4-10.752-46.976-10.88-47.232a55.424 55.424 0 0 1 19.136-67.456l1.216-0.832 124.224-67.456 1.344-0.576a63.36 63.36 0 0 1 67.968 13.952c14.656 15.232 61.184 54.784 98.816 54.784 37.312 0 83.52-38.784 98.112-53.76a63.616 63.616 0 0 1 68.032-13.376l1.28 0.576 120 65.92 1.216 0.832a55.424 55.424 0 0 1 19.072 67.456c-0.128 0.192-10.88 24.768-10.88 47.168 0 67.968 56 123.328 124.8 123.328h4.16c19.968-0.384 36.416 17.024 41.6 44.096 0.512 2.112 10.112 52.992 10.112 92.992 0 40.064-9.6 90.88-10.048 92.992-5.184 27.136-21.632 44.48-41.6 44.032h-4.16c-68.8 0-124.8 55.36-124.8 123.392 0 22.464 10.752 46.976 10.88 47.232a55.36 55.36 0 0 1-19.072 67.392l-1.28 0.896-122.048 66.688-1.344 0.512a56.32 56.32 0 0 1-22.656 4.48z m-6.016-64.832a8.192 8.192 0 0 0 3.648 0.96h0.192l112.128-61.056c-2.688-6.208-15.04-36.16-15.04-67.584 0-93.76 75.008-170.56 169.024-175.296 1.344-7.36 8.704-48.832 8.704-79.808s-7.296-72.384-8.704-79.744c-94.016-4.864-169.024-81.664-169.024-175.36 0-31.424 12.416-61.44 15.104-67.648l-110.4-60.352h-0.448a8.448 8.448 0 0 0-4.16 1.088 309.12 309.12 0 0 1-40.832 33.728c-33.984 23.552-66.176 35.456-95.552 35.456-29.76 0-62.144-12.16-96.384-36.16a312.064 312.064 0 0 1-41.024-34.432 9.088 9.088 0 0 0-4.224-1.024H372.48l-114.304 61.76c2.752 6.272 15.104 36.288 15.104 67.584 0 93.696-75.008 170.496-169.024 175.36-1.408 7.36-8.704 48.704-8.704 79.744s7.36 72.384 8.704 79.744c94.016 4.8 169.024 81.6 169.024 175.36 0 31.424-12.48 61.632-15.104 67.712l108.16 59.52h0.256a8 8 0 0 0 3.584-0.896c2.048-2.112 18.176-19.008 41.408-35.776 34.688-25.088 67.648-37.76 97.92-37.76 30.656 0 63.872 12.928 98.752 38.464 23.36 17.152 39.616 34.24 41.6 36.416z m-137.984-223.104c-88.32 0-160.192-71.68-160.192-159.808s71.872-159.744 160.192-159.744c88.384 0 160.256 71.616 160.256 159.744s-71.872 159.808-160.256 159.808z m0-255.744a96 96 0 0 0 0 191.808 95.936 95.936 0 0 0 0-191.808z">
			</path>
		</svg>
	</g>
	<g id="svg_eof" />
</svg>
