<svg xmlns="http://www.w3.org/2000/svg">
  <g id="mode_connect">
    <svg t="1602521733214" class="icon" viewBox="0 0 1024 1024" version="1.1" xmlns="http://www.w3.org/2000/svg" p-id="36600" width="32" height="32"><path d="M910.821053 26.947368H754.526316c-48.505263 0-86.231579 37.726316-86.231579 86.231579V269.473684c0 48.505263 37.726316 86.231579 86.231579 86.231579h53.894737V485.052632H188.631579c-16.168421-5.389474-26.947368 5.389474-26.947368 21.557894v167.073685h-48.505264c-48.505263 0-86.231579 37.726316-86.231579 86.231578V916.210526c0 48.505263 37.726316 86.231579 86.231579 86.231579H269.473684c48.505263 0 86.231579-37.726316 86.231579-86.231579v-156.294737c0-48.505263-37.726316-86.231579-86.231579-86.231578H215.578947V533.557895h619.789474c16.168421 0 26.947368-10.778947 26.947368-26.947369V350.315789h48.505264c48.505263 0 86.231579-37.726316 86.231579-86.231578V113.178947c0-48.505263-37.726316-86.231579-86.231579-86.231579zM296.421053 759.915789V916.210526c0 16.168421-16.168421 32.336842-32.336842 32.336842H113.178947c-16.168421 0-32.336842-16.168421-32.336842-32.336842v-156.294737c0-16.168421 16.168421-32.336842 32.336842-32.336842H269.473684c10.778947 0 26.947368 16.168421 26.947369 32.336842z m646.736842-495.831578c0 16.168421-16.168421 32.336842-32.336842 32.336842H754.526316c-16.168421 0-32.336842-16.168421-32.336842-32.336842V113.178947c0-16.168421 16.168421-32.336842 32.336842-32.336842h156.294737c16.168421 0 32.336842 16.168421 32.336842 32.336842v150.905264z" p-id="36601" fill="#d5d5d5"></path></svg>
  </g>
  <g id="svg_eof"/>
</svg>
